# xmcd CD database file
#
# Track frame offsets:
#	150
#	13128
#	26327
#	38741
#	50806
#	61381
#	72965
#	86231
#	100308
#	113833
#	125237
#	138002
#	150107
#	163274
#	176655
#	188335
#	200766
#	214831
#	229306
#
# Disc length: 3240 seconds
#
# Revision: 0
# Processed by: cddbd v1.5.1PL0 Copyright (c) Steve Scherf et al.
# Submitted via: CDex 1.50beta9
#
DISCID=0d0ca613
DTITLE=Lester Young - Lester Leaps In - CD2
DYEAR=1900
DGENRE=Jazz
TTITLE0=I Want A Little Girl
TTITLE1=Pagin The Devil
TTITLE2=I Cant Believe That Youre In Love With Me
TTITLE3=Back In Your Own Backyard
TTITLE4=You Cante Be Mine (An Someone Else's Too)
TTITLE5=Say It With A Kiss
TTITLE6=I Aint Got Nobody
TTITLE7=Going To Chicago
TTITLE8=(Let Me) Live And Love You Tonight
TTITLE9=Love Me Or Leave Me
TTITLE10=China Boy
TTITLE11=Exactly Like You
TTITLE12=On The Sunny Side Of The Street
TTITLE13=Upright Organ Blues
TTITLE14=Who?
TTITLE15=Jazz Me Blues
TTITLE16=Dickies Dream
TTITLE17=Lester Leaps In
TTITLE18=The Man I Love
EXTD=
EXTT0=
EXTT1=
EXTT2=
EXTT3=
EXTT4=
EXTT5=
EXTT6=
EXTT7=
EXTT8=
EXTT9=
EXTT10=
EXTT11=
EXTT12=
EXTT13=
EXTT14=
EXTT15=
EXTT16=
EXTT17=
EXTT18=
PLAYORDER=
